<?xml version="1.0" encoding="UTF-8" standalone="no"?>
<svg
   xmlns:dc="http://purl.org/dc/elements/1.1/"
   xmlns:cc="http://creativecommons.org/ns#"
   xmlns:rdf="http://www.w3.org/1999/02/22-rdf-syntax-ns#"
   xmlns:svg="http://www.w3.org/2000/svg"
   xmlns="http://www.w3.org/2000/svg"
   xmlns:sodipodi="http://sodipodi.sourceforge.net/DTD/sodipodi-0.dtd"
   xmlns:inkscape="http://www.inkscape.org/namespaces/inkscape"
   width="240pt"
   height="60.145527pt"
   viewBox="0 0 239.99999 60.145524"
   version="1.1"
   id="svg2"
   inkscape:version="0.91 r"
   sodipodi:docname="ambev logo 2015.svg">
  <metadata
     id="metadata11">
    <rdf:RDF>
      <cc:Work
         rdf:about="">
        <dc:format>image/svg+xml</dc:format>
        <dc:type
           rdf:resource="http://purl.org/dc/dcmitype/StillImage" />
        <dc:title></dc:title>
      </cc:Work>
    </rdf:RDF>
  </metadata>
  <defs
     id="defs9" />
  <sodipodi:namedview
     pagecolor="#ffffff"
     bordercolor="#666666"
     borderopacity="1"
     objecttolerance="10"
     gridtolerance="10"
     guidetolerance="10"
     inkscape:pageopacity="0"
     inkscape:pageshadow="2"
     inkscape:window-width="1080"
     inkscape:window-height="1896"
     id="namedview7"
     showgrid="false"
     fit-margin-top="0"
     fit-margin-left="0"
     fit-margin-right="0"
     fit-margin-bottom="0"
     inkscape:zoom="1.0816734"
     inkscape:cx="56.515429"
     inkscape:cy="-317.53888"
     inkscape:window-x="1280"
     inkscape:window-y="24"
     inkscape:window-maximized="1"
     inkscape:current-layer="svg2" />
  <g
     id="g3375">
    <path
       id="path5"
       transform="scale(0.79999995,0.79999996)"
       d="M 246.07812 19.626953 L 264.44141 74.207031 L 281.75977 74.207031 L 300 19.626953 L 283.52148 19.626953 L 273.2832 56.884766 L 273.16211 56.884766 L 262.73633 19.626953 L 246.07812 19.626953 z "
       style="fill:#1e3085;fill-opacity:1;fill-rule:nonzero;stroke:none" />
    <path
       inkscape:connector-curvature="0"
       id="path3340"
       d="M 18.079074,14.830819 C 9.7905362,14.876565 6.1035148e-6,22.437547 6.1035148e-6,37.462727 6.1035148e-6,52.46963 9.8618954,60.028602 18.144202,60.092605 c 5.397124,-0.0199 9.584704,-2.4826 11.515404,-5.132884 l 0,4.406308 12.313227,0 0,-43.710932 -12.313227,0 0,4.412403 C 27.721039,17.39625 23.508074,14.830819 18.079074,14.830819 Z m 0.06513,45.261786 c -0.02199,8.3e-5 -0.04314,0.0021 -0.06513,0.0021 l 0.09566,0 c -0.01042,-5.2e-5 -0.02042,-0.0021 -0.03053,-0.0021 z m 3.134272,-33.970253 c 5.037222,0 8.767825,4.603723 8.767825,11.391258 0,6.975803 -3.730603,11.387194 -8.767825,11.387194 -5.33234,0 -8.725082,-4.314721 -8.725082,-11.387194 0,-6.884215 3.392742,-11.391258 8.725082,-11.391258 z"
       style="fill:#1e3085;fill-opacity:1;fill-rule:nonzero;stroke:none" />
    <path
       id="path3348"
       transform="scale(0.79999995,0.79999996)"
       d="M 87.476562 18.539062 C 79.907997 18.539062 76.086666 22.113549 73.96875 24.962891 L 73.96875 19.568359 L 59.251953 19.568359 L 59.251953 74.207031 L 74.636719 74.207031 L 74.636719 43.134766 C 74.636719 36.53293 77.66565 32.466797 82.333984 32.466797 C 86.569831 32.466797 89.232422 35.382402 89.232422 41.316406 L 89.232422 62.15625 C 89.232422 67.67049 90.327289 71.484896 92.992188 74.207031 L 109.04492 74.207031 C 105.96024 71.662969 104.625 69.668915 104.625 62.214844 L 104.625 43.134766 C 104.625 36.53293 107.65248 32.466797 112.31445 32.466797 C 116.55667 32.466797 119.22266 35.382402 119.22266 41.316406 L 119.22266 62.15625 C 119.22266 67.67049 120.67877 71.421292 123.89062 74.207031 L 140.0625 74.207031 C 136.24641 71.662969 134.61328 68.941975 134.61328 63.427734 L 134.61328 39.556641 C 134.61328 22.778612 124.97821 18.539062 116.91992 18.539062 C 108.49911 18.539062 103.89953 22.959401 101.35547 26.476562 C 98.684201 21.808229 93.836709 18.539062 87.476562 18.539062 z "
       style="fill:#1e3085;fill-opacity:1;fill-rule:nonzero;stroke:none" />
    <path
       id="path3356"
       transform="scale(0.79999995,0.79999996)"
       d="M 142.42969 0 L 142.42969 74.207031 L 157.57422 74.207031 L 157.57422 68.699219 C 159.99743 72.025569 165.38807 75.182809 172.16797 75.119141 C 182.52863 75.061953 194.88672 65.609602 194.88672 46.828125 C 194.88672 28.046649 182.65168 18.59622 172.29102 18.539062 C 165.51112 18.4755 160.23767 21.744922 157.81445 25.083984 L 157.81445 0 L 142.42969 0 z M 168.29688 32.652344 C 174.9623 32.652344 179.19727 38.287309 179.19727 46.892578 C 179.19727 55.73317 174.9623 61.126953 168.29688 61.126953 C 161.99399 61.126953 157.33203 55.612332 157.33203 46.892578 C 157.33203 38.408159 161.99399 32.652344 168.29688 32.652344 z "
       style="fill:#1e3085;fill-opacity:1;fill-rule:nonzero;stroke:none" />
    <path
       id="path3365"
       transform="scale(0.79999995,0.79999996)"
       d="M 224.81836 18.539062 C 210.76247 18.539062 198.52539 28.714469 198.52539 46.828125 C 198.52539 63.491685 210.39413 75.181641 226.02734 75.181641 C 233.30333 75.181641 240.38941 73.121865 244.74609 69.242188 L 246.13672 56.160156 C 240.99138 59.918981 234.38941 61.673828 227.78125 61.673828 C 220.45437 61.673828 215.24826 58.097607 214.1543 52.640625 L 248.14258 52.640625 C 248.32067 51.190502 248.38281 49.736358 248.38281 48.222656 C 248.38281 28.716113 237.29696 18.539062 224.81836 18.539062 z M 223.78711 31.5 C 229.3586 31.5 232.69157 35.91996 233.11133 41.376953 L 214.0957 41.376953 C 214.82075 35.315729 218.69266 31.5 223.78711 31.5 z "
       style="fill:#1e3085;fill-opacity:1;fill-rule:nonzero;stroke:none" />
  </g>
</svg>
