<?xml version="1.0" encoding="utf-8"?>
<!-- Generator: Adobe Illustrator 22.1.0, SVG Export Plug-In . SVG Version: 6.00 Build 0)  -->
<svg version="1.1" id="Layer_1" xmlns="http://www.w3.org/2000/svg" xmlns:xlink="http://www.w3.org/1999/xlink" x="0px" y="0px"
	 viewBox="0 0 137.6 41" style="enable-background:new 0 0 137.6 41;" xml:space="preserve">
<style type="text/css">
	.st0{fill:#003560;}
</style>
<g>
	<path class="st0" d="M72.6,16.4h-7.1v-6.1h7.1c1.6,0,3.1,1.4,3.1,3.1C75.6,15,74.3,16.4,72.6,16.4 M91.9,13.4
		c0-7.3-5.9-13.2-13.2-13.2H49.2v40.7h16.3V21.4l8.1,19.4h17.3l-6.6-15.5C88.8,23.2,91.9,18.6,91.9,13.4"/>
	<path class="st0" d="M23.8,30.7h-7.1v-6.1h7.1c1.6,0,3.1,1.4,3.1,3.1C26.8,29.3,25.4,30.7,23.8,30.7 M16.7,10.4h6.1
		c1.6,0,3.1,1.4,3.1,3.1c0,1.6-1.4,3.1-3.1,3.1h-6.1C16.7,16.6,16.7,10.4,16.7,10.4z M37.9,19.2c3.1-1.7,5.2-5.1,5.2-8.9
		c0-5.6-4.6-10.2-10.2-10.2H0.4v29.5v11.2H34c6.1,0,11.2-5,11.2-11.2C45.1,24.9,42.1,20.8,37.9,19.2"/>
	<path class="st0" d="M135.1,16.4h-22.2v-4.1h22.8l1.6-12.1H96.6v40.7h16.3V28.6h20.6L135.1,16.4"/>
</g>
</svg>
