<svg width="500" height="54" version="1.1" viewBox="0 0 500 54" xmlns="http://www.w3.org/2000/svg">
 <path d="m31.586 30.285c-0.62858 1.721-0.65666 3.61-0.0783 5.3494l4.8558 14.657c1.5174-1.6076 2.6941-3.516 3.4577-5.6064l17.259-43.275h-14.96zm-12.883-21.786c-1.7286-5.2583-5.3262-7.089-11.301-7.089h-7.4014l17.192 42.774c2.3723 5.9196 5.5946 9.0625 11.502 9.0625 1.5542 0.0308 3.0992-0.2484 4.5486-0.82136l-14.166-42.774zm63.658 32.24c-7.6925 0-10.355-5.4806-10.355-13.961 0-8.6975 3.8098-13.596 10.355-13.596 7.6925 0 10.501 5.4807 10.501 13.596 0 8.8455-3.7428 13.961-10.501 13.961zm0-40.281c-12.392 0-24.688 8.6516-24.688 26.331 0 17.178 10.282 26.753 24.666 26.753 13.091 0 24.884-8.7774 24.884-26.753 0-16.887-10.355-26.32-24.884-26.32m66.068 0.94092h-37.83v12.644h15.463v38.525h14.238v-38.525h14.887v-5.7031c0-4.6082-2.0137-6.9464-6.7583-6.9464m210.19 5e-3h-6.4748v29.24l-19.273-29.24h-12.721v51.169h13.229v-28.362l19.419 28.362h12.582v-44.222c0-4.6081-2.0142-6.9464-6.7556-6.9464m50.616 4.3e-4h-37.828v12.644h15.461v38.525h14.24v-38.525h14.883v-5.7031c0-4.6082-2.0143-6.9464-6.7556-6.9464m20.342 5e-3h-7.5494v51.169h14.24v-44.222c0-4.6081-2.0143-6.9464-6.7124-6.9464m63.614 0h-7.274l-12.366 23.246-13.009-23.246h-13.938v51.169h13.166v-30.797l8.7752 16.083h9.5637l8.6997-16.083v30.797h13.23v-44.222c0-4.6081-1.8684-6.9464-6.8312-6.9464m-257.46 23.539h-6.1929v-11.977h6.6125c6.1151 0 8.2018 1.7566 8.2018 5.994s-2.4447 5.994-8.6322 5.994zm23.005-5.9084c0-11.549-6.7135-17.617-21.002-17.617h-21.998v51.168h13.802v-16.31h8.6268l3.9551 8.8455c2.2378 5.0416 4.7446 7.4538 11.077 7.4538h7.4074l-10.143-19.299c5.3931-2.5554 8.2747-7.9846 8.2747-14.258m-75.542 21.716c-7.6925 0-10.355-5.4812-10.355-13.962 0-8.6972 3.8158-13.596 10.355-13.596 7.6985 0 10.529 5.4807 10.529 13.608 0 8.8454-3.7374 13.962-10.501 13.962zm0.0281-40.27c-12.398-0.0114-24.694 8.6402-24.694 26.32 0 17.178 10.283 26.753 24.666 26.753 13.092 0 24.885-8.7769 24.885-26.753 0-16.887-10.356-26.32-24.885-26.32m99.397 30.256 5.8964-16.739 5.5389 16.739zm-1.869-29.314-19.127 51.169h13.88l3.67-10.836h18.059l1.2194 3.6559c1.7291 5.2635 4.392 7.1628 10.361 7.1628h7.2729l-19.513-51.151z" fill="#0000bf" stroke-width="5.4002"/>
</svg>
